<svg version="1.0" xmlns="http://www.w3.org/2000/svg" width="1280.000000pt" height="1119.000000pt" viewBox="0 0 1280.000000 1119.000000" preserveAspectRatio="xMidYMid meet">
<metadata>
Created by potrace 1.15, written by Peter Selinger 2001-2017
</metadata>
<g transform="translate(0.000000,1119.000000) scale(0.100000,-0.100000)" fill="#000000" stroke="none">
<path d="M5478 11095 c-238 -45 -797 -286 -1148 -493 -275 -164 -264 -162 -895 -172 -613 -10 -680 -15 -1455 -110 -608 -74 -675 -81 -935 -87 -253 -6 -362 1 -580 37 -191 32 -290 24 -309 -25 -21 -55 2 -136 61 -219 19 -26 29 -45 22 -40 -7 4 -3 -7 10 -24 21 -30 41 -46 25 -20 -4 7 -3 8 5 4 6 -4 9 -11 6 -16 -8 -14 91 -116 174 -178 268 -202 592 -280 1336 -322 99 -5 369 -17 600 -25 868 -31 1086 -50 1190 -102 43 -22 85 -64 85 -85 0 -10 -13 -32 -29 -50 -29 -32 -31 -33 -108 -32 -59 1 -135 16 -318 62 -405 102 -626 129 -960 119 -353 -11 -498 -55 -555 -167 -32 -63 -43 -168 -38 -385 4 -172 9 -216 32 -319 15 -66 41 -156 56 -200 16 -44 26 -84 24 -88 -3 -4 0 -8 6 -8 6 0 8 -4 5 -10 -3 -5 -2 -10 4 -10 6 0 8 -6 5 -13 -6 -17 135 -299 224 -449 96 -161 235 -364 406 -592 78 -105 161 -218 183 -251 96 -143 179 -353 210 -533 24 -141 24 -498 -1 -647 -39 -240 -108 -459 -201 -646 -106 -211 -202 -334 -490 -629 -121 -124 -249 -263 -283 -309 -139 -184 -186 -335 -212 -676 -6 -77 -20 -252 -31 -390 -26 -317 -23 -553 10 -695 28 -121 49 -168 101 -224 54 -58 116 -81 273 -102 231 -29 287 -53 522 -218 250 -175 315 -199 582 -217 159 -10 192 -15 448 -64 295 -56 449 -31 667 111 102 66 145 84 204 84 67 0 164 -48 260 -128 124 -105 190 -230 213 -402 5 -41 12 -88 16 -105 18 -85 117 -189 228 -239 141 -64 275 -88 638 -111 334 -21 420 -46 585 -172 78 -59 121 -87 137 -88 4 0 54 -48 110 -107 57 -60 109 -108 115 -108 25 0 9 33 -72 152 -113 167 -139 216 -177 337 -38 120 -70 160 -140 181 -29 8 -166 15 -404 19 -391 8 -478 19 -533 66 -25 22 -27 28 -28 122 -1 98 -2 102 -57 224 -91 204 -98 257 -44 354 74 132 204 184 462 185 146 0 300 17 407 44 413 105 768 501 1012 1131 58 150 155 445 176 535 8 30 33 127 56 215 144 541 194 775 164 775 -12 0 -60 -71 -99 -147 -49 -97 -86 -197 -186 -493 -147 -435 -221 -603 -353 -801 -252 -375 -579 -556 -971 -536 -122 6 -206 25 -401 92 -143 48 -192 53 -250 23 -63 -32 -115 -115 -179 -283 -114 -303 -188 -417 -307 -476 -56 -28 -78 -33 -163 -37 -83 -4 -118 0 -221 23 -135 31 -167 31 -410 0 -211 -26 -325 -15 -716 71 -254 55 -381 77 -614 104 -468 53 -655 105 -777 214 -94 85 -130 187 -140 391 -8 179 34 730 57 745 4 3 12 15 19 28 15 28 49 26 65 -3 6 -11 15 -23 20 -26 19 -14 7 -225 -24 -403 -40 -240 -39 -300 6 -282 11 4 30 10 44 12 59 12 128 111 269 389 44 88 83 174 86 190 15 93 10 92 78 14 100 -115 124 -116 232 -13 117 111 231 161 560 243 244 60 390 81 438 63 25 -10 -70 -70 -368 -230 -400 -215 -472 -272 -511 -406 -34 -120 -14 -348 41 -457 137 -270 537 -272 871 -5 189 151 316 352 369 582 80 351 47 610 -89 702 -79 53 -142 67 -296 66 -146 -1 -243 -18 -510 -90 -188 -51 -296 -55 -485 -20 -81 15 -213 30 -313 35 -95 6 -190 16 -212 22 -45 14 -90 53 -90 79 0 25 33 118 64 179 15 29 23 50 17 46 -24 -14 42 81 216 313 283 376 405 567 536 842 33 69 65 128 71 132 6 5 7 8 1 8 -6 0 -5 3 1 8 27 18 90 204 139 412 119 512 80 779 -181 1210 -32 52 -83 142 -114 200 -38 70 -61 104 -71 101 -104 -27 -167 -2 -288 114 -222 212 -446 558 -537 830 -56 167 -75 272 -81 450 l-6 160 41 61 c23 34 58 75 80 92 33 26 146 88 192 105 8 3 2 6 -15 7 -28 2 -27 3 10 11 22 4 114 7 205 6 91 0 131 -3 90 -5 -72 -4 -66 -6 190 -47 411 -65 583 -106 718 -171 82 -40 157 -105 167 -147 14 -54 -47 -146 -112 -168 -47 -15 -92 -8 -373 56 -415 96 -634 121 -753 86 -104 -30 -149 -112 -127 -231 6 -36 14 -76 16 -90 7 -39 68 -163 115 -232 80 -119 289 -368 381 -455 132 -124 220 -112 361 51 122 142 422 563 502 706 27 47 72 120 102 162 56 79 133 233 133 264 0 9 18 72 39 138 57 174 74 268 69 387 -4 116 -13 130 -66 99 -55 -33 -74 -27 -149 48 -79 80 -173 130 -298 159 -69 15 -122 18 -380 17 -257 -1 -347 -5 -630 -33 -181 -17 -409 -39 -505 -48 -224 -21 -677 -23 -810 -4 -339 48 -599 192 -694 383 -51 101 -34 110 150 74 212 -41 310 -48 719 -56 215 -3 363 -7 330 -9 -54 -2 -58 -3 -35 -14 44 -21 532 -13 910 13 439 31 1006 35 1113 8 136 -35 226 -105 262 -204 10 -27 22 -53 26 -59 4 -5 14 -37 23 -69 20 -78 28 -85 57 -44 13 18 32 41 41 50 10 10 34 50 54 90 44 88 116 195 175 262 225 254 682 508 1012 561 202 33 267 18 542 -120 256 -128 296 -139 495 -139 154 1 162 3 470 90 81 23 114 28 225 28 148 0 220 -15 499 -103 88 -28 163 -48 168 -45 17 11 245 -132 284 -179 l19 -22 -25 20 c-30 24 -23 14 62 -90 36 -44 89 -113 117 -153 29 -40 66 -79 81 -87 37 -19 92 -19 154 0 27 8 79 15 116 15 48 0 71 4 80 15 12 14 24 14 67 -2 9 -4 7 13 -7 51 -26 78 -47 219 -31 224 6 2 11 9 11 16 0 7 16 31 35 53 50 59 42 84 -15 47 l-25 -16 24 21 c16 15 36 21 65 20 45 -1 134 -26 101 -28 -29 -3 37 -35 252 -125 232 -96 343 -152 468 -235 184 -122 272 -226 247 -291 -31 -78 -144 -177 -252 -220 -33 -13 -87 -24 -136 -27 -162 -11 -272 46 -473 244 -69 68 -133 123 -142 123 -13 0 -25 -23 -48 -95 -61 -190 -96 -217 -366 -280 -60 -14 -166 -44 -234 -66 -213 -68 -280 -69 -338 -5 -56 61 -60 97 -37 360 7 73 6 78 -12 74 -26 -5 -89 -99 -114 -171 -31 -93 -35 -192 -12 -323 30 -164 76 -241 167 -280 59 -24 176 -20 419 16 262 39 379 41 439 8 23 -13 48 -36 56 -52 12 -26 11 -33 -7 -70 -11 -23 -55 -84 -97 -136 -116 -143 -120 -159 -32 -121 28 12 73 23 98 24 36 2 70 17 155 67 537 314 661 362 944 364 158 1 302 -28 750 -154 118 -33 226 -60 240 -60 l25 1 -25 14 c-58 33 3 11 96 -34 106 -52 192 -127 180 -157 -4 -10 -2 -12 6 -8 8 5 9 2 5 -10 -4 -9 0 -33 8 -53 20 -46 19 -126 -1 -194 -35 -119 -148 -313 -291 -502 -397 -524 -922 -925 -1292 -987 -101 -17 -225 -1 -274 35 -18 13 -18 15 1 57 38 86 168 206 607 563 559 453 700 594 742 740 27 96 23 132 -18 170 -91 83 -436 134 -819 122 -422 -14 -608 -82 -690 -251 -41 -87 -57 -180 -85 -505 -31 -367 -78 -517 -220 -716 -64 -88 -72 -98 -258 -303 -143 -157 -179 -201 -171 -213 2 -4 30 1 61 12 65 22 66 22 58 10 -14 -23 43 -19 162 11 160 40 292 43 483 9 187 -33 343 -38 460 -13 113 23 226 67 332 128 194 111 330 227 718 609 344 339 387 378 503 453 172 112 324 147 607 139 219 -6 335 -25 600 -97 179 -49 263 -63 230 -39 -13 10 -13 10 0 6 103 -32 197 -48 272 -45 47 2 83 7 83 13 0 6 -49 26 -110 46 -60 20 -171 62 -245 94 -193 83 -293 117 -475 163 -197 51 -395 87 -585 107 -175 19 -194 28 -186 88 3 23 8 81 12 128 6 80 5 91 -19 143 -89 193 -506 454 -903 564 -139 39 -195 50 -363 71 l-136 18 54 49 c183 165 252 248 265 316 2 13 9 42 16 65 15 49 7 101 -20 136 -28 35 -132 86 -330 162 -96 37 -287 121 -425 187 -418 201 -506 235 -633 245 -177 13 -279 -64 -281 -212 -1 -69 -18 -122 -44 -140 -39 -27 -72 -19 -138 38 -108 91 -182 148 -269 207 -208 139 -553 333 -767 429 -318 144 -499 192 -853 226 -91 9 -232 30 -315 46 -183 37 -312 44 -417 24z m2021 -631 c14 -12 -19 -1 -35 12 -18 14 -18 14 6 3 14 -6 27 -13 29 -15z m-5472 -1270 c-3 -3 -12 -4 -19 -1 -8 3 -5 6 6 6 11 1 17 -2 13 -5z"/>
<path d="M6455 7134 c-163 -29 -334 -97 -483 -193 -125 -81 -150 -122 -121 -198 6 -15 12 -41 15 -57 5 -41 56 -122 135 -215 152 -178 310 -263 459 -248 125 14 234 72 440 236 140 112 236 161 395 201 120 30 159 49 179 85 6 11 19 31 29 44 29 40 22 74 -23 115 -77 69 -251 143 -461 195 -213 52 -401 64 -564 35z"/>
<path d="M9597 6313 c-13 -21 -38 -194 -52 -358 -8 -99 -26 -369 -40 -600 -35 -576 -53 -725 -116 -965 -81 -304 -262 -660 -585 -1146 -223 -337 -514 -717 -695 -911 -27 -28 -49 -55 -49 -58 0 -17 126 99 350 323 135 135 236 234 225 221 l-19 -24 23 21 c12 11 23 27 24 35 4 22 18 40 27 34 21 -13 250 294 378 505 93 153 204 365 195 373 -3 4 -1 7 6 7 7 0 9 5 6 10 -3 6 -1 10 5 10 6 0 8 5 5 10 -3 6 -1 10 5 10 6 0 8 5 5 10 -3 6 -2 10 2 10 5 0 9 8 10 18 1 9 20 58 43 107 174 374 271 705 326 1120 21 152 29 624 15 805 -13 167 -38 349 -55 399 -11 34 -29 50 -39 34z"/>
</g>
</svg>